<?xml version="1.0" standalone="no"?><!DOCTYPE svg PUBLIC "-//W3C//DTD SVG 1.1//EN" "http://www.w3.org/Graphics/SVG/1.1/DTD/svg11.dtd"><svg t="1645782513519" class="icon" viewBox="0 0 1024 1024" version="1.1" xmlns="http://www.w3.org/2000/svg" p-id="6930" xmlns:xlink="http://www.w3.org/1999/xlink" width="64" height="64"><defs><style type="text/css"></style></defs><path d="M833.609143 550.180571H482.011429a28.964571 28.964571 0 0 1-29.330286-28.672c0-15.798857 13.019429-28.525714 29.330286-28.525714h359.424l-74.752-72.996571a28.013714 28.013714 0 0 1 0-40.448 29.915429 29.915429 0 0 1 41.472 0l109.348571 106.642285c5.558857 1.097143 10.825143 3.657143 15.140571 7.826286 6.729143 6.582857 9.508571 15.36 8.411429 23.771429a28.086857 28.086857 0 0 1-8.411429 23.771428 29.110857 29.110857 0 0 1-15.140571 7.826286l-109.348571 106.642286a29.915429 29.915429 0 0 1-41.398858 0 28.013714 28.013714 0 0 1-0.073142-40.448l66.998857-65.389715z m-87.698286-305.298285V149.504C745.910857 107.300571 710.948571 73.142857 667.648 73.142857h-508.342857c-43.154286 0-78.262857 34.157714-78.262857 76.361143v724.992c0 42.203429 35.108571 76.361143 78.262857 76.361143h508.342857c43.227429 0 78.262857-34.230857 78.262857-76.361143v-95.378286a28.964571 28.964571 0 0 0-29.257143-28.598857 28.964571 28.964571 0 0 0-29.403428 28.598857v76.361143c0 21.065143-17.554286 38.107429-38.912 38.107429H178.688a38.546286 38.546286 0 0 1-38.912-38.034286V168.374857c0-20.992 17.554286-38.034286 38.912-38.034286h469.577143c21.577143 0 38.985143 16.969143 38.985143 38.034286v76.434286c0 15.798857 13.165714 28.598857 29.330285 28.598857a28.964571 28.964571 0 0 0 29.330286-28.598857z" p-id="6931" fill="#c2c4c8"></path></svg>